<svg width="32" height="32" viewBox="0 0 32 32" fill="none" xmlns="http://www.w3.org/2000/svg">
<path d="M4.27734 15.6667C4.27734 11.3716 4.27734 9.22412 5.61164 7.88983C6.94593 6.55554 9.09344 6.55554 13.3885 6.55554H17.944C22.239 6.55554 24.3865 6.55554 25.7208 7.88983C27.0551 9.22412 27.0551 11.3716 27.0551 15.6667V17.9444C27.0551 22.2394 27.0551 24.387 25.7208 25.7212C24.3865 27.0555 22.239 27.0555 17.944 27.0555H13.3885C9.09344 27.0555 6.94593 27.0555 5.61164 25.7212C4.27734 24.387 4.27734 22.2394 4.27734 17.9444V15.6667Z" stroke="#4B4B4B" stroke-width="2.5"/>
<path d="M9.97266 6.55556V4.84723" stroke="#4B4B4B" stroke-width="2.5" stroke-linecap="round"/>
<path d="M21.3613 6.55556V4.84723" stroke="#4B4B4B" stroke-width="2.5" stroke-linecap="round"/>
<path d="M4.84766 12.25H26.4865" stroke="#4B4B4B" stroke-width="2.5" stroke-linecap="round"/>
</svg>
