<svg width="32" height="32" viewBox="0 0 32 32" fill="none" xmlns="http://www.w3.org/2000/svg">
<circle cx="16" cy="16" r="16" fill="#FFC117"/>
<path d="M4.99271 10.9388C5.02552 10.1349 5.68683 9.5 6.49146 9.5H25.5085C26.3132 9.5 26.9745 10.1349 27.0073 10.9388L27.4155 20.9388C27.4502 21.7905 26.7691 22.5 25.9167 22.5H6.0833C5.23087 22.5 4.54978 21.7905 4.58455 20.9388L4.99271 10.9388Z" fill="white" stroke="#262626"/>
<path d="M10 19H22.5" stroke="#262626" stroke-width="1.8" stroke-linecap="round"/>
<rect x="10.3984" y="14.65" width="1.6" height="1.6" rx="0.16" fill="#262626"/>
<rect x="11.998" y="12.25" width="1.6" height="1.6" rx="0.16" fill="#262626"/>
<rect x="15.1992" y="12.25" width="1.6" height="1.6" rx="0.16" fill="#262626"/>
<rect x="18.3984" y="12.25" width="1.6" height="1.6" rx="0.16" fill="#262626"/>
<rect x="16.7988" y="14.6499" width="1.6" height="1.6" rx="0.16" fill="#262626"/>
<rect x="13.5977" y="14.65" width="1.6" height="1.6" rx="0.16" fill="#262626"/>
<rect x="19.998" y="14.6499" width="1.6" height="1.6" rx="0.16" fill="#262626"/>
</svg>
