<svg width="22" height="19" viewBox="0 0 22 19" fill="none" xmlns="http://www.w3.org/2000/svg">
<path d="M14.7736 9.97306L13.6506 8.85001C13.8211 7.96026 13.5871 7.20129 12.9486 6.57309C12.3102 5.94489 11.5441 5.70386 10.6506 5.85001L9.52751 4.72696C9.75956 4.61926 9.99834 4.5417 10.2438 4.49426C10.4894 4.44683 10.7416 4.42311 11.0006 4.42311C12.1352 4.42311 13.0983 4.81895 13.89 5.61061C14.6816 6.40228 15.0775 7.36541 15.0775 8.50001C15.0775 8.75898 15.0553 9.01122 15.0111 9.25674C14.9669 9.50224 14.8877 9.74101 14.7736 9.97306ZM17.9544 13.0846L16.8506 12.05C17.4839 11.5667 18.0506 11.0292 18.5506 10.4375C19.0506 9.84585 19.4672 9.20001 19.8006 8.50001C18.9672 6.81668 17.7631 5.47918 16.1881 4.48751C14.6131 3.49585 12.8839 3.00001 11.0006 3.00001C10.5172 3.00001 10.0464 3.03335 9.58806 3.10001C9.12973 3.16668 8.66723 3.26668 8.20056 3.40001L7.03521 2.23466C7.6711 1.98338 8.31949 1.79812 8.98039 1.67889C9.64127 1.55965 10.3147 1.50004 11.0006 1.50004C13.1493 1.50004 15.123 2.05837 16.9217 3.17504C18.7204 4.2917 20.1037 5.8026 21.0717 7.70771C21.1384 7.83463 21.1867 7.96251 21.2169 8.09136C21.247 8.22021 21.2621 8.35643 21.2621 8.50001C21.2621 8.6436 21.2496 8.77981 21.2246 8.90866C21.1996 9.03751 21.1537 9.16539 21.0871 9.29231C20.7332 10.0449 20.289 10.7397 19.7544 11.3769C19.2198 12.0141 18.6198 12.5833 17.9544 13.0846ZM11.0006 15.5C8.89545 15.5 6.96597 14.9375 5.21214 13.8125C3.45829 12.6875 2.06405 11.2058 1.02944 9.36731C0.946104 9.2404 0.885212 9.10258 0.846762 8.95386C0.808296 8.80515 0.789062 8.65386 0.789062 8.50001C0.789062 8.34616 0.805729 8.19745 0.839063 8.05386C0.872396 7.91028 0.930729 7.7699 1.01406 7.63271C1.38586 6.95323 1.80702 6.30611 2.27754 5.69136C2.74805 5.07661 3.28908 4.52565 3.90061 4.03849L1.64291 1.76539C1.50445 1.61667 1.43618 1.44007 1.43811 1.23559C1.44003 1.0311 1.51342 0.856428 1.65829 0.711562C1.80315 0.566695 1.9788 0.494263 2.18521 0.494263C2.39161 0.494263 2.56725 0.566695 2.71211 0.711562L19.289 17.2885C19.4275 17.4269 19.5009 17.5984 19.5092 17.8029C19.5175 18.0073 19.4441 18.1872 19.289 18.3423C19.1441 18.4872 18.9685 18.5596 18.7621 18.5596C18.5557 18.5596 18.3801 18.4872 18.2352 18.3423L14.716 14.8538C14.1262 15.082 13.5201 15.2468 12.8977 15.3481C12.2753 15.4493 11.6429 15.5 11.0006 15.5ZM4.95444 5.09229C4.36854 5.54485 3.84193 6.05672 3.37461 6.62789C2.9073 7.19904 2.51595 7.82308 2.20056 8.50001C3.0339 10.1833 4.23806 11.5208 5.81306 12.5125C7.38806 13.5042 9.11723 14 11.0006 14C11.4301 14 11.8528 13.9712 12.2689 13.9135C12.6849 13.8558 13.098 13.7667 13.5083 13.6462L12.2429 12.35C12.0403 12.4384 11.8381 12.4984 11.6361 12.5298C11.4342 12.5612 11.2224 12.5769 11.0006 12.5769C9.86596 12.5769 8.90283 12.1811 8.11116 11.3894C7.3195 10.5977 6.92366 9.63461 6.92366 8.50001C6.92366 8.27821 6.94097 8.06635 6.97559 7.86444C7.0102 7.6625 7.06854 7.46025 7.15059 7.25769L4.95444 5.09229Z" fill="#A3A3A3"/>
</svg>
