<svg width="22" height="15" viewBox="0 0 22 15" fill="none" xmlns="http://www.w3.org/2000/svg">
<path d="M11.0031 11.5769C12.1362 11.5769 13.0985 11.1803 13.8902 10.3872C14.6819 9.59397 15.0777 8.63083 15.0777 7.49773C15.0777 6.36465 14.6811 5.40227 13.888 4.61061C13.0948 3.81894 12.1316 3.42311 10.9985 3.42311C9.86545 3.42311 8.90308 3.81969 8.11141 4.61286C7.31975 5.40604 6.92391 6.36918 6.92391 7.50228C6.92391 8.63536 7.3205 9.59774 8.11366 10.3894C8.90685 11.1811 9.86999 11.5769 11.0031 11.5769ZM11.0008 10.2C10.2508 10.2 9.61331 9.93751 9.08831 9.41251C8.56331 8.88751 8.30081 8.25001 8.30081 7.50001C8.30081 6.75001 8.56331 6.11251 9.08831 5.58751C9.61331 5.06251 10.2508 4.80001 11.0008 4.80001C11.7508 4.80001 12.3883 5.06251 12.9133 5.58751C13.4383 6.11251 13.7008 6.75001 13.7008 7.50001C13.7008 8.25001 13.4383 8.88751 12.9133 9.41251C12.3883 9.93751 11.7508 10.2 11.0008 10.2ZM11.0008 14.5C8.8957 14.5 6.97039 13.9384 5.22489 12.8154C3.47937 11.6923 2.0861 10.2147 1.04509 8.38268C0.961754 8.2391 0.900854 8.09439 0.862387 7.94856C0.823921 7.80271 0.804688 7.65302 0.804688 7.49951C0.804688 7.34599 0.823921 7.19648 0.862387 7.05098C0.900854 6.90546 0.961754 6.76091 1.04509 6.61733C2.0861 4.78528 3.47937 3.30772 5.22489 2.18466C6.97039 1.06157 8.8957 0.500031 11.0008 0.500031C13.1059 0.500031 15.0312 1.06157 16.7767 2.18466C18.5223 3.30772 19.9155 4.78528 20.9565 6.61733C21.0399 6.76091 21.1008 6.90562 21.1392 7.05146C21.1777 7.19731 21.1969 7.34699 21.1969 7.50051C21.1969 7.65402 21.1777 7.80353 21.1392 7.94903C21.1008 8.09455 21.0399 8.2391 20.9565 8.38268C19.9155 10.2147 18.5223 11.6923 16.7767 12.8154C15.0312 13.9384 13.1059 14.5 11.0008 14.5ZM11.0008 13C12.8841 13 14.6133 12.5042 16.1883 11.5125C17.7633 10.5208 18.9675 9.18334 19.8008 7.50001C18.9675 5.81667 17.7633 4.47917 16.1883 3.48751C14.6133 2.49584 12.8841 2.00001 11.0008 2.00001C9.11748 2.00001 7.38831 2.49584 5.81331 3.48751C4.23831 4.47917 3.03415 5.81667 2.20081 7.50001C3.03415 9.18334 4.23831 10.5208 5.81331 11.5125C7.38831 12.5042 9.11748 13 11.0008 13Z" fill="#A3A3A3"/>
</svg>
