<svg width="110" height="28" viewBox="0 0 110 28" fill="none" xmlns="http://www.w3.org/2000/svg">
<path d="M36.9576 21.2027L34.452 22.6499H25.1856V7.5299H34.452L36.9576 8.9771V21.2027ZM28.2096 10.1219V20.0579H33.9336V10.1219H28.2096ZM50.4123 21.3107L47.9067 22.7579H43.3059L40.8003 21.3107V13.1891L43.3059 11.7419H47.9067L50.4123 13.1891V21.3107ZM43.7595 14.2691V20.2307H47.4531V14.2691H43.7595ZM56.9956 14.3771V20.1227H62.3524V22.6499H56.542L54.0364 21.2027V13.2971L56.542 11.8499H62.3524V14.3771H56.9956ZM64.6789 14.3771V11.8499H66.6661V10.0355L69.6253 8.3291V11.8499H72.0013V14.3771H69.6253V20.1227H72.0013V22.6499H69.1717L66.6661 21.2027V14.3771H64.6789ZM78.1523 22.6499H75.1931V6.8819H78.1523V12.6275L79.6859 11.7419H82.5155L85.0211 13.1891V22.6499H82.0619V14.2691H78.1523V22.6499ZM95.3356 14.3771H91.6204V22.6499H88.6612V11.8499H91.102L91.6204 12.7355L93.154 11.8499H95.3356V14.3771ZM97.8895 21.3107V11.8499H100.849V20.2307H104.542V11.8499H107.502V22.7579H105.061L104.542 21.8723L103.009 22.7579H100.395L97.8895 21.3107Z" fill="#525252"/>
<rect x="0.398438" y="3.87488" width="17.55" height="20.25" rx="1.35" fill="#262626"/>
<path d="M11.5359 10.6249L13.8984 13.578L11.5359 16.5311" stroke="#FFC117" stroke-width="1.62"/>
<path d="M6.81172 10.6249L4.44922 13.578L6.81172 16.5311" stroke="#FFC117" stroke-width="1.62"/>
</svg>
